<?xml version="1.0" encoding="UTF-8" standalone="no"?>
<!-- Created with Inkscape (http://www.inkscape.org/) -->

<svg
   xmlns:dc="http://purl.org/dc/elements/1.1/"
   xmlns:cc="http://creativecommons.org/ns#"
   xmlns:rdf="http://www.w3.org/1999/02/22-rdf-syntax-ns#"
   xmlns:svg="http://www.w3.org/2000/svg"
   xmlns="http://www.w3.org/2000/svg"
   xmlns:xlink="http://www.w3.org/1999/xlink"
   xmlns:sodipodi="http://sodipodi.sourceforge.net/DTD/sodipodi-0.dtd"
   xmlns:inkscape="http://www.inkscape.org/namespaces/inkscape"
   width="408.99551mm"
   height="85.810959mm"
   viewBox="0 0 1449.1967 304.05459"
   id="svg2"
   version="1.1"
   inkscape:version="0.91 r13725"
   sodipodi:docname="greyOrange.svg">
  <defs
     id="defs4">
    <linearGradient
       inkscape:collect="always"
       id="linearGradient4233">
      <stop
         style="stop-color:#fef8cb;stop-opacity:1"
         offset="0"
         id="stop4235" />
      <stop
         id="stop4243"
         offset="0.90006059"
         style="stop-color:#fef8cb;stop-opacity:1" />
      <stop
         id="stop4241"
         offset="0.92599881"
         style="stop-color:#fe9220;stop-opacity:1" />
      <stop
         style="stop-color:#fe9220;stop-opacity:1"
         offset="1"
         id="stop4237" />
    </linearGradient>
    <radialGradient
       inkscape:collect="always"
       xlink:href="#linearGradient4233"
       id="radialGradient4239"
       cx="927.79358"
       cy="256.42859"
       fx="927.79358"
       fy="256.42859"
       r="126.00001"
       gradientTransform="matrix(1,0,0,1.0396825,0,-10.175722)"
       gradientUnits="userSpaceOnUse" />
  </defs>
  <sodipodi:namedview
     id="base"
     pagecolor="#ffffff"
     bordercolor="#666666"
     borderopacity="1.0"
     inkscape:pageopacity="0.0"
     inkscape:pageshadow="2"
     inkscape:zoom="1.2551574"
     inkscape:cx="767.49237"
     inkscape:cy="57.048981"
     inkscape:document-units="px"
     inkscape:current-layer="layer2"
     showgrid="false"
     fit-margin-top="0"
     fit-margin-left="0"
     fit-margin-right="0"
     fit-margin-bottom="0"
     inkscape:window-width="1280"
     inkscape:window-height="1004"
     inkscape:window-x="0"
     inkscape:window-y="20"
     inkscape:window-maximized="0" />
  <metadata
     id="metadata7">
    <rdf:RDF>
      <cc:Work
         rdf:about="">
        <dc:format>image/svg+xml</dc:format>
        <dc:type
           rdf:resource="http://purl.org/dc/dcmitype/StillImage" />
        <dc:title></dc:title>
      </cc:Work>
    </rdf:RDF>
  </metadata>
  <g
     inkscape:groupmode="layer"
     id="layer2"
     inkscape:label="greyOrange"
     transform="translate(-118.4522,-336.81355)">
    <path
       style="fill:#979797;fill-opacity:1;fill-rule:evenodd;stroke:#000000;stroke-width:5;stroke-linecap:butt;stroke-linejoin:round;stroke-miterlimit:4;stroke-dasharray:none;stroke-opacity:1"
       d="m 1455.6921,451.26857 c 6.1155,48.29984 10.8936,96.02651 9.0496,140.91513 33.2458,-1.22521 63.5623,2.67602 92.2197,9.48053 2.0975,-15.08266 5.6519,-30.16532 3.4474,-45.24798 -18.0992,3.014 -36.1983,3.73729 -54.2975,2.15467 l 0,-18.53013 43.0933,3.01654 c 2.3921,-13.99285 3.4774,-27.65904 1.2928,-40.50772 l -44.817,5.60213 -3.8785,-32.31998 c 17.1778,-1.75872 35.1115,-1.24963 53.4357,0.43093 5.3731,-14.85227 7.9525,-31.56705 9.9115,-48.69544 -36.9434,10.18922 -73.6532,19.21032 -109.457,23.70132 z"
       id="path4259"
       inkscape:connector-curvature="0"
       sodipodi:nodetypes="ccccccccccccc" />
    <path
       style="fill:#979797;fill-opacity:1;fill-rule:evenodd;stroke:#000000;stroke-width:5;stroke-linecap:butt;stroke-linejoin:round;stroke-miterlimit:4;stroke-dasharray:none;stroke-opacity:1"
       d="m 1393.2068,524.09627 37.9221,-14.65172 21.5467,62.05437 c -62.6307,51.33341 -141.0602,14.07803 -145.6554,-53.43571 -3.668,-53.89264 72.1365,-127.50023 151.2575,-52.57384 l -21.9776,32.75092 c -27.7401,-33.32795 -79.0264,-23.60411 -80.1535,17.66826 -0.5924,21.691 16.9053,43.21798 46.9716,32.31998 z"
       id="path4257"
       inkscape:connector-curvature="0"
       sodipodi:nodetypes="cccsccscc" />
    <path
       style="fill:#979797;fill-opacity:1;fill-rule:evenodd;stroke:#000000;stroke-width:5;stroke-linecap:square;stroke-linejoin:round;stroke-miterlimit:4;stroke-dasharray:none;stroke-opacity:1"
       d="m 1183.3424,602.09517 c 1.0799,-9.87363 2.5885,-152.35227 -0.8397,-159.39373 15.5569,-3.25507 34.7864,-5.84392 51.6898,-9.53206 8.0948,31.26372 20.9272,57.78986 37.0602,81.01543 -2.4684,-29.18815 -0.9755,-57.7161 3.4475,-85.75569 16.95,0.7914 33.9001,-1.5104 50.8501,-6.464 -8.7704,49.34286 -15.325,116.72339 -11.6352,173.66605 -16.8064,-1.63365 -33.6128,-0.51459 -50.4192,4.74026 -8.2147,-28.85635 -19.2215,-56.03741 -33.1819,-81.44635 l 5.6022,73.25862 c -12.2358,0.0749 -42.9102,5.73933 -52.5738,9.91147 z"
       id="path4255"
       inkscape:connector-curvature="0"
       sodipodi:nodetypes="ccccccccccc" />
    <path
       style="fill:#979797;fill-opacity:1;fill-rule:evenodd;stroke:#000000;stroke-width:5;stroke-linecap:butt;stroke-linejoin:round;stroke-miterlimit:4;stroke-dasharray:none;stroke-opacity:1"
       d="m 1129.8066,432.23047 c -2.0405,0.0478 -4.1597,0.21488 -6.3632,0.50781 -71.6648,9.52681 -59.1675,102.89066 -48.2657,170.65039 10.9822,-2.54827 20.1656,-6.12647 38.7852,-4.31055 -19.2854,-64.697 39.3763,-60.73025 22.8379,-1.72265 13.6462,-3.11766 27.2932,-4.33742 40.9394,-1.72461 1.7016,-51.44452 15.3238,-164.88283 -47.9336,-163.40039 z m -8.0878,47.91015 a 20.68479,23.054922 0 0 1 20.6855,23.05469 20.68479,23.054922 0 0 1 -20.6855,23.05469 20.68479,23.054922 0 0 1 -20.6856,-23.05469 20.68479,23.054922 0 0 1 20.6856,-23.05469 z"
       id="path4250"
       inkscape:connector-curvature="0" />
    <path
       style="fill:#979797;fill-opacity:1;fill-rule:evenodd;stroke:#000000;stroke-width:5;stroke-linecap:butt;stroke-linejoin:round;stroke-miterlimit:4;stroke-dasharray:none;stroke-opacity:1"
       d="M 999.80273,433.0293 C 987.04925,433.13075 972.06987,435.58889 955,441 c 5.13092,55.35864 11.68224,110.53972 8,167 16.60084,-3.46498 33.16003,-7.01328 52,-6 -9.3877,-28.04565 -8.016,-37.64648 -10,-53 14.8537,22.27147 32.401,40.7719 53,55 14.2166,-14.43065 23.6536,-32.84426 31,-53 -21.0682,-6.32584 -41.5774,-15.44646 -60,-35 39.5202,-39.59252 26.0678,-83.41032 -29.19727,-82.9707 z m 2.76277,33.75334 c 7.4968,10e-5 14.8669,5.78797 14.867,12.92773 -10e-5,7.13976 -9.094,14.22043 -16.5907,14.22053 -7.49675,-9e-5 -13.57407,-5.78796 -13.57422,-12.92773 1.5e-4,-7.13977 7.8012,-14.22044 15.29792,-14.22053 z"
       id="path4245"
       inkscape:connector-curvature="0"
       sodipodi:nodetypes="scccccccsccccc" />
    <g
       id="g4167"
       transform="matrix(1.1865461,0,0,1.1865461,-159.41917,-74.175274)">
      <ellipse
         transform="matrix(0.96993812,0.2433517,-0.2433517,0.96993812,0,0)"
         ry="128.41658"
         rx="123.41659"
         cy="256.42859"
         cx="927.79358"
         id="path4231"
         style="opacity:1;fill:url(#radialGradient4239);fill-opacity:1;fill-rule:evenodd;stroke:none;stroke-width:5.16683722;stroke-linecap:round;stroke-linejoin:round;stroke-miterlimit:4;stroke-dasharray:none;stroke-dashoffset:0;stroke-opacity:1" />
      <path
         sodipodi:nodetypes="csc"
         inkscape:connector-curvature="0"
         id="path4280"
         d="m 833.46372,472.31224 c 0,0 -5.88461,-121.17541 35.92899,-110.44836 55.03096,14.1179 -35.92899,110.44836 -35.92899,110.44836 z"
         style="fill:#feb15e;fill-opacity:1;fill-rule:evenodd;stroke:#fbd44f;stroke-width:1px;stroke-linecap:butt;stroke-linejoin:miter;stroke-opacity:1" />
      <path
         style="fill:#feb15e;fill-opacity:1;fill-rule:evenodd;stroke:#fbd44f;stroke-width:1px;stroke-linecap:butt;stroke-linejoin:miter;stroke-opacity:1"
         d="m 837.1075,476.39328 c 46.98771,-43.09268 53.70287,-106.82049 84.49595,-76.561 39.92631,39.23447 -20.21552,39.43043 -84.49595,76.561 z"
         id="path4284"
         inkscape:connector-curvature="0"
         sodipodi:nodetypes="csc" />
      <path
         sodipodi:nodetypes="csc"
         inkscape:connector-curvature="0"
         id="path4286"
         d="m 836.95337,481.6973 c 0,0 104.04812,-53.82737 111.80022,-11.36148 10.20252,55.88944 -111.80022,11.36148 -111.80022,11.36148 z"
         style="fill:#feb15e;fill-opacity:1;fill-rule:evenodd;stroke:#fbd44f;stroke-width:1px;stroke-linecap:butt;stroke-linejoin:miter;stroke-opacity:1" />
      <path
         sodipodi:nodetypes="csc"
         inkscape:connector-curvature="0"
         id="path4288"
         d="m 833.17125,484.64038 c 82.77436,35.5679 126.32165,10.77498 92.81578,55.65364 -22.69906,30.40373 -42.09625,-1.44866 -92.81578,-55.65364 z"
         style="fill:#feb15e;fill-opacity:1;fill-rule:evenodd;stroke:#fbd44f;stroke-width:1px;stroke-linecap:butt;stroke-linejoin:miter;stroke-opacity:1" />
      <path
         sodipodi:nodetypes="csc"
         inkscape:connector-curvature="0"
         id="path4290"
         d="m 828.049,483.79472 c 31.03589,55.69198 85.26475,71.66415 48.69517,94.61006 C 829.328,608.15646 849.27911,554.92793 828.049,483.79472 Z"
         style="fill:#feb15e;fill-opacity:1;fill-rule:evenodd;stroke:#fbd44f;stroke-width:1px;stroke-linecap:butt;stroke-linejoin:miter;stroke-opacity:1" />
      <path
         style="fill:#feb15e;fill-opacity:1;fill-rule:evenodd;stroke:#fbd44f;stroke-width:1px;stroke-linecap:butt;stroke-linejoin:miter;stroke-opacity:1"
         d="M 828.2374,474.63549 C 815.13101,452.617 759.39369,384.3533 798.47156,366.00801 c 58.12857,-27.28872 24.72149,35.90219 29.76584,108.62748 z"
         id="path4292"
         inkscape:connector-curvature="0"
         sodipodi:nodetypes="csc" />
      <path
         style="fill:#feb15e;fill-opacity:1;fill-rule:evenodd;stroke:#fbd44f;stroke-width:1px;stroke-linecap:butt;stroke-linejoin:miter;stroke-opacity:1"
         d="m 824.03339,475.51254 c 0,0 -97.09068,-17.44207 -83.31717,-58.35341 15.61447,-46.37953 83.31717,58.35341 83.31717,58.35341 z"
         id="path4294"
         inkscape:connector-curvature="0"
         sodipodi:nodetypes="csc" />
      <path
         style="fill:#feb15e;fill-opacity:1;fill-rule:evenodd;stroke:#fbd44f;stroke-width:1px;stroke-linecap:butt;stroke-linejoin:miter;stroke-opacity:1"
         d="m 823.16801,485.74188 c -2.34426,17.74788 35.78543,106.85596 -11.14813,102.31261 -37.76597,-3.6559 -25.15568,-45.91293 11.14813,-102.31261 z"
         id="path4296"
         inkscape:connector-curvature="0"
         sodipodi:nodetypes="csc" />
      <path
         sodipodi:nodetypes="csc"
         inkscape:connector-curvature="0"
         id="path4298"
         d="m 817.57918,483.3556 c -14.0026,11.15391 -35.45779,105.60498 -66.10287,69.76813 -24.65914,-28.8368 0.82675,-54.34354 66.10287,-69.76813 z"
         style="fill:#feb15e;fill-opacity:1;fill-rule:evenodd;stroke:#fbd44f;stroke-width:1px;stroke-linecap:butt;stroke-linejoin:miter;stroke-opacity:1" />
      <path
         sodipodi:nodetypes="csc"
         inkscape:connector-curvature="0"
         id="path4300"
         d="m 816.70295,478.00003 c -63.69089,2.87982 -78.17464,67.59624 -86.43393,12.44925 -8.65941,-57.81861 11.53641,-31.00794 86.43393,-12.44925 z"
         style="fill:#feb15e;fill-opacity:1;fill-rule:evenodd;stroke:#fbd44f;stroke-width:1px;stroke-linecap:butt;stroke-linejoin:miter;stroke-opacity:1" />
    </g>
    <path
       style="fill:#979797;fill-opacity:1;fill-rule:evenodd;stroke:#000000;stroke-width:5;stroke-linecap:butt;stroke-linejoin:round;stroke-miterlimit:4;stroke-dasharray:none;stroke-opacity:1"
       d="m 577.5,433.5 c -9.94754,39.66284 -16.01634,81.10402 32.84315,89.23223 -8.09703,28.63185 -6.2663,58.59791 -2.84315,83.76777 18.974,-9.09101 36.85955,-11.24159 58.5,-11 -5.39916,-21.82893 -15.12302,-42.80442 -11.5,-68.5 46.86441,-9.40137 46.5351,-58.78798 45.5,-85 l -46.5,-7 c 22.35268,58.03543 -64.47393,66.15136 -34.37868,-2.5 z"
       id="path4227"
       inkscape:connector-curvature="0"
       sodipodi:nodetypes="ccccccccc" />
    <path
       style="fill:#979797;fill-opacity:1;fill-rule:evenodd;stroke:#000000;stroke-width:5;stroke-linecap:butt;stroke-linejoin:round;stroke-miterlimit:4;stroke-dasharray:none;stroke-opacity:1"
       d="m 463.5,440 c 5.24397,56.71256 0.6326,111.8236 -6.5,163.5 39.52199,-3.78699 76.38913,-0.35216 112,6.5 3.08135,-18.75198 5.38358,-38.28308 4.5,-61 -20.66418,7.65423 -41.15207,14.42702 -60.5,15.5 l 1,-21 c 11.6164,-1.75793 21.0211,-0.19831 30,2 0.75693,-15.74769 1.35499,-31.54834 6,-46 -11.22151,1.61394 -24.02929,5.38285 -36.5,2 l 4,-26.5 c 18.95349,0.59302 36.71252,3.57497 53,9.5 7.62708,-16.66389 11.26803,-38.64262 15,-60.5 -40.33333,7.25539 -81.66667,17.86811 -122,16 z"
       id="path4225"
       inkscape:connector-curvature="0"
       sodipodi:nodetypes="ccccccccccccc" />
    <path
       style="fill:#979797;fill-opacity:1;fill-rule:evenodd;stroke:#000000;stroke-width:5;stroke-linecap:butt;stroke-linejoin:round;stroke-miterlimit:4;stroke-dasharray:none;stroke-opacity:1"
       d="M 396.22656,422.0332 C 378.6457,422.32239 356.64656,427.69499 330,440.5 l -1.5,168 C 345.63854,595.35935 363.22269,591.44677 383,595 l -2.5,-62.5 c 16.73086,34.55103 37.93797,57.16541 58.5,81.5 7.57266,-21.16667 13.78004,-33.33333 36,-50 -22.99262,-14.01107 -46.73565,-26.89652 -62,-52.5 53.17122,-13.50031 52.19765,-90.60131 -16.77344,-89.4668 z m -11.02148,40.19532 a 16.5,19.5 72.613997 0 1 15.9043,10.94531 16.5,19.5 72.613997 0 1 -13.67969,21.57226 16.5,19.5 72.613997 0 1 -23.53907,-9.91992 16.5,19.5 72.613997 0 1 13.67969,-21.57226 16.5,19.5 72.613997 0 1 7.63477,-1.02539 z"
       id="path4220"
       inkscape:connector-curvature="0" />
    <path
       style="fill:#979797;fill-opacity:1;fill-rule:evenodd;stroke:#000000;stroke-width:5;stroke-linecap:butt;stroke-linejoin:round;stroke-miterlimit:4;stroke-dasharray:none;stroke-opacity:1"
       d="m 299,430 33,-42 c -53.02545,-60.27955 -198.21274,-49.5611 -210.5,87 -8.70869,96.78875 86.6125,158.55724 216.5,87.5 l -51.5,-97.5 -51,35 22.5,36.5 c -48.6778,11.63335 -83.95825,-32.87854 -73,-75 19.60197,-75.39909 95.74548,-61.45476 114,-31.5 z"
       id="path4218"
       inkscape:connector-curvature="0"
       sodipodi:nodetypes="ccscccccc" />
  </g>
</svg>
